<mxfile host="app.diagrams.net" agent="Mozilla/5.0 (Windows NT 10.0; Win64; x64) AppleWebKit/537.36 (KHTML, like Gecko) Chrome/133.0.0.0 Safari/537.36" version="26.1.0">
  <diagram name="PÃ¡gina-1" id="OyaIflWtevoJJnKaJFJC">
    <mxGraphModel dx="2427" dy="1838" grid="1" gridSize="10" guides="1" tooltips="1" connect="1" arrows="1" fold="1" page="1" pageScale="1" pageWidth="827" pageHeight="1169" math="0" shadow="0">
      <root>
        <mxCell id="0" />
        <mxCell id="1" parent="0" />
        <mxCell id="ZmiweC-K1XhS0n9JyN_v-19" style="edgeStyle=orthogonalEdgeStyle;rounded=0;orthogonalLoop=1;jettySize=auto;html=1;exitX=0.75;exitY=0;exitDx=0;exitDy=0;entryX=0.25;entryY=0;entryDx=0;entryDy=0;" edge="1" parent="1" source="ZmiweC-K1XhS0n9JyN_v-1" target="ZmiweC-K1XhS0n9JyN_v-7">
          <mxGeometry relative="1" as="geometry">
            <Array as="points">
              <mxPoint x="510" y="-90" />
              <mxPoint x="600" y="-90" />
              <mxPoint x="600" y="-230" />
              <mxPoint x="950" y="-230" />
              <mxPoint x="950" y="-350" />
              <mxPoint x="1070" y="-350" />
            </Array>
          </mxGeometry>
        </mxCell>
        <mxCell id="ZmiweC-K1XhS0n9JyN_v-1" value="Usuarios.h" style="swimlane;fontStyle=1;align=center;verticalAlign=top;childLayout=stackLayout;horizontal=1;startSize=26;horizontalStack=0;resizeParent=1;resizeParentMax=0;resizeLast=0;collapsible=1;marginBottom=0;whiteSpace=wrap;html=1;" vertex="1" parent="1">
          <mxGeometry x="330" y="-50" width="240" height="210" as="geometry" />
        </mxCell>
        <mxCell id="ZmiweC-K1XhS0n9JyN_v-2" value="&lt;p dir=&quot;ltr&quot; class=&quot;selectable-text copyable-text x15bjb6t x1n2onr6&quot;&gt;&lt;span style=&quot;white-space-collapse: preserve;&quot; class=&quot;selectable-text copyable-text false&quot;&gt;string nombre;&lt;/span&gt;&lt;/p&gt;&lt;p dir=&quot;ltr&quot; class=&quot;selectable-text copyable-text x15bjb6t x1n2onr6&quot;&gt;&lt;span style=&quot;white-space-collapse: preserve;&quot; class=&quot;selectable-text copyable-text false&quot;&gt;map&amp;lt;string, Mascotas*&amp;gt; mascotas;&lt;/span&gt;&lt;/p&gt;" style="text;strokeColor=none;fillColor=none;align=left;verticalAlign=top;spacingLeft=4;spacingRight=4;overflow=hidden;rotatable=0;points=[[0,0.5],[1,0.5]];portConstraint=eastwest;whiteSpace=wrap;html=1;" vertex="1" parent="ZmiweC-K1XhS0n9JyN_v-1">
          <mxGeometry y="26" width="240" height="74" as="geometry" />
        </mxCell>
        <mxCell id="ZmiweC-K1XhS0n9JyN_v-3" value="" style="line;strokeWidth=1;fillColor=none;align=left;verticalAlign=middle;spacingTop=-1;spacingLeft=3;spacingRight=3;rotatable=0;labelPosition=right;points=[];portConstraint=eastwest;strokeColor=inherit;" vertex="1" parent="ZmiweC-K1XhS0n9JyN_v-1">
          <mxGeometry y="100" width="240" height="8" as="geometry" />
        </mxCell>
        <mxCell id="ZmiweC-K1XhS0n9JyN_v-4" value="&lt;p dir=&quot;ltr&quot; class=&quot;selectable-text copyable-text x15bjb6t x1n2onr6&quot;&gt;&lt;span style=&quot;white-space-collapse: preserve;&quot; class=&quot;selectable-text copyable-text false&quot;&gt;Usuarios(string nombre);&lt;/span&gt;&lt;/p&gt;&lt;p dir=&quot;ltr&quot; class=&quot;selectable-text copyable-text x15bjb6t x1n2onr6&quot;&gt;&lt;span style=&quot;white-space-collapse: preserve;&quot; class=&quot;selectable-text copyable-text false&quot;&gt;void adoptarMascota(Mascotas* mascota);&lt;/span&gt;&lt;/p&gt;&lt;p dir=&quot;ltr&quot; class=&quot;selectable-text copyable-text x15bjb6t x1n2onr6&quot;&gt;&lt;span style=&quot;white-space-collapse: preserve;&quot; class=&quot;selectable-text copyable-text false&quot;&gt;void mostrarMascota();&lt;/span&gt;&lt;/p&gt;" style="text;strokeColor=none;fillColor=none;align=left;verticalAlign=top;spacingLeft=4;spacingRight=4;overflow=hidden;rotatable=0;points=[[0,0.5],[1,0.5]];portConstraint=eastwest;whiteSpace=wrap;html=1;" vertex="1" parent="ZmiweC-K1XhS0n9JyN_v-1">
          <mxGeometry y="108" width="240" height="102" as="geometry" />
        </mxCell>
        <mxCell id="ZmiweC-K1XhS0n9JyN_v-5" value="&lt;p style=&quot;margin:0px;margin-top:4px;text-align:center;&quot;&gt;&lt;b&gt;Mascotas.h&lt;/b&gt;&lt;/p&gt;&lt;hr size=&quot;1&quot; style=&quot;border-style:solid;&quot;&gt;&lt;p style=&quot;margin:0px;margin-left:4px;&quot;&gt;int energia;&lt;/p&gt;&lt;p style=&quot;margin:0px;margin-left:4px;&quot;&gt;string nombre;&lt;/p&gt;&lt;p style=&quot;margin:0px;margin-left:4px;&quot;&gt;string estadoSalud;&lt;/p&gt;&lt;p style=&quot;margin:0px;margin-left:4px;&quot;&gt;string saludEmocional;&lt;/p&gt;&lt;p dir=&quot;ltr&quot; class=&quot;selectable-text copyable-text x15bjb6t x1n2onr6&quot;&gt;&lt;span style=&quot;white-space-collapse: preserve;&quot; class=&quot;selectable-text copyable-text false&quot;&gt; vector &amp;lt;Habilidades&amp;gt; habilidades;&lt;/span&gt;&lt;/p&gt;&lt;p dir=&quot;ltr&quot; class=&quot;selectable-text copyable-text x15bjb6t x1n2onr6&quot;&gt;&lt;span style=&quot;white-space-collapse: preserve; background-color: transparent; color: light-dark(rgb(0, 0, 0), rgb(255, 255, 255));&quot;&gt; vector &amp;lt;string&amp;gt; historial;&lt;/span&gt;&lt;/p&gt;&lt;p style=&quot;margin:0px;margin-left:4px;&quot;&gt;&lt;br&gt;&lt;/p&gt;&lt;hr size=&quot;1&quot; style=&quot;border-style:solid;&quot;&gt;&lt;p dir=&quot;ltr&quot; class=&quot;selectable-text copyable-text x15bjb6t x1n2onr6&quot;&gt;&lt;span style=&quot;white-space-collapse: preserve;&quot; class=&quot;selectable-text copyable-text false&quot;&gt;string getNombre() const;&lt;/span&gt;&lt;/p&gt;&lt;p dir=&quot;ltr&quot; class=&quot;selectable-text copyable-text x15bjb6t x1n2onr6&quot;&gt;&lt;span style=&quot;white-space-collapse: preserve;&quot; class=&quot;selectable-text copyable-text false&quot;&gt;      void recibirObjeto(Objetos *objeto);&lt;/span&gt;&lt;/p&gt;&lt;p dir=&quot;ltr&quot; class=&quot;selectable-text copyable-text x15bjb6t x1n2onr6&quot;&gt;&lt;span style=&quot;white-space-collapse: preserve;&quot; class=&quot;selectable-text copyable-text false&quot;&gt;      void aprenderHabilidad(Habilidades *habilidad);&lt;/span&gt;&lt;/p&gt;&lt;p dir=&quot;ltr&quot; class=&quot;selectable-text copyable-text x15bjb6t x1n2onr6&quot;&gt;&lt;span style=&quot;white-space-collapse: preserve;&quot; class=&quot;selectable-text copyable-text false&quot;&gt;      void ganarExperencia(int exp);&lt;/span&gt;&lt;/p&gt;&lt;p dir=&quot;ltr&quot; class=&quot;selectable-text copyable-text x15bjb6t x1n2onr6&quot;&gt;&lt;span style=&quot;white-space-collapse: preserve;&quot; class=&quot;selectable-text copyable-text false&quot;&gt;      void mostrarHitorial();&lt;/span&gt;&lt;/p&gt;" style="verticalAlign=top;align=left;overflow=fill;html=1;whiteSpace=wrap;" vertex="1" parent="1">
          <mxGeometry x="-160" y="-110" width="410" height="380" as="geometry" />
        </mxCell>
        <mxCell id="ZmiweC-K1XhS0n9JyN_v-7" value="&lt;p style=&quot;margin:0px;margin-top:4px;text-align:center;&quot;&gt;&lt;b&gt;Plataforma.h&lt;/b&gt;&lt;/p&gt;&lt;hr size=&quot;1&quot; style=&quot;border-style:solid;&quot;&gt;&lt;p dir=&quot;ltr&quot; class=&quot;selectable-text copyable-text x15bjb6t x1n2onr6&quot;&gt;&lt;span style=&quot;white-space-collapse: preserve;&quot; class=&quot;selectable-text copyable-text false&quot;&gt;map&amp;lt;string, Usuarios*&amp;gt; usuarios;&lt;/span&gt;&lt;/p&gt;&lt;p dir=&quot;ltr&quot; class=&quot;selectable-text copyable-text x15bjb6t x1n2onr6&quot;&gt;&lt;span style=&quot;white-space-collapse: preserve;&quot; class=&quot;selectable-text copyable-text false&quot;&gt;Tienda tienda;&lt;/span&gt;&lt;/p&gt;&lt;hr size=&quot;1&quot; style=&quot;border-style:solid;&quot;&gt;&lt;p dir=&quot;ltr&quot; class=&quot;selectable-text copyable-text x15bjb6t x1n2onr6&quot;&gt;&lt;span style=&quot;white-space-collapse: preserve;&quot; class=&quot;selectable-text copyable-text false&quot;&gt; Plataformas();&lt;/span&gt;&lt;/p&gt;&lt;p dir=&quot;ltr&quot; class=&quot;selectable-text copyable-text x15bjb6t x1n2onr6&quot;&gt;&lt;span style=&quot;white-space-collapse: preserve;&quot; class=&quot;selectable-text copyable-text false&quot;&gt; void registrarUsuario(const string&amp;amp; nombre);&lt;/span&gt;&lt;/p&gt;&lt;p dir=&quot;ltr&quot; class=&quot;selectable-text copyable-text x15bjb6t x1n2onr6&quot;&gt;&lt;span style=&quot;white-space-collapse: preserve;&quot; class=&quot;selectable-text copyable-text false&quot;&gt; Usuarios* getUsuario(const string&amp;amp; nombre);&lt;/span&gt;&lt;/p&gt;&lt;p dir=&quot;ltr&quot; class=&quot;selectable-text copyable-text x15bjb6t x1n2onr6&quot;&gt;&lt;span style=&quot;white-space-collapse: preserve;&quot; class=&quot;selectable-text copyable-text false&quot;&gt; void mostrarUsuarios()const;&lt;/span&gt;&lt;/p&gt;&lt;p dir=&quot;ltr&quot; class=&quot;selectable-text copyable-text x15bjb6t x1n2onr6&quot;&gt;&lt;span style=&quot;white-space-collapse: preserve;&quot; class=&quot;selectable-text copyable-text false&quot;&gt; Tienda&amp;amp; getTienda();&lt;/span&gt;&lt;/p&gt;" style="verticalAlign=top;align=left;overflow=fill;html=1;whiteSpace=wrap;" vertex="1" parent="1">
          <mxGeometry x="980" y="-310" width="360" height="310" as="geometry" />
        </mxCell>
        <mxCell id="ZmiweC-K1XhS0n9JyN_v-18" style="edgeStyle=orthogonalEdgeStyle;rounded=0;orthogonalLoop=1;jettySize=auto;html=1;exitX=1;exitY=0;exitDx=0;exitDy=0;entryX=0.5;entryY=0;entryDx=0;entryDy=0;" edge="1" parent="1" source="ZmiweC-K1XhS0n9JyN_v-9" target="ZmiweC-K1XhS0n9JyN_v-7">
          <mxGeometry relative="1" as="geometry" />
        </mxCell>
        <mxCell id="ZmiweC-K1XhS0n9JyN_v-9" value="&lt;p style=&quot;margin:0px;margin-top:4px;text-align:center;&quot;&gt;&lt;b&gt;Tienda.h&lt;/b&gt;&lt;/p&gt;&lt;hr size=&quot;1&quot; style=&quot;border-style:solid;&quot;&gt;&lt;p style=&quot;margin:0px;margin-left:4px;&quot;&gt;&lt;span style=&quot;white-space-collapse: preserve;&quot; class=&quot;selectable-text copyable-text false&quot;&gt;vector &amp;lt;Objetos&amp;gt; inventario;&lt;/span&gt;&lt;/p&gt;&lt;hr size=&quot;1&quot; style=&quot;border-style:solid;&quot;&gt;&lt;p dir=&quot;ltr&quot; class=&quot;selectable-text copyable-text x15bjb6t x1n2onr6&quot;&gt;&lt;span style=&quot;white-space-collapse: preserve;&quot; class=&quot;selectable-text copyable-text false&quot;&gt;Tienda();&lt;/span&gt;&lt;/p&gt;&lt;p dir=&quot;ltr&quot; class=&quot;selectable-text copyable-text x15bjb6t x1n2onr6&quot;&gt;&lt;span style=&quot;white-space-collapse: preserve;&quot; class=&quot;selectable-text copyable-text false&quot;&gt;      void agregarObjeto(Objetos&amp;amp; obj);&lt;/span&gt;&lt;/p&gt;&lt;p dir=&quot;ltr&quot; class=&quot;selectable-text copyable-text x15bjb6t x1n2onr6&quot;&gt;&lt;span style=&quot;white-space-collapse: preserve;&quot; class=&quot;selectable-text copyable-text false&quot;&gt;      void mostrarInventario();&lt;/span&gt;&lt;/p&gt;&lt;p dir=&quot;ltr&quot; class=&quot;selectable-text copyable-text x15bjb6t x1n2onr6&quot;&gt;&lt;span style=&quot;white-space-collapse: preserve;&quot; class=&quot;selectable-text copyable-text false&quot;&gt;      Objetos* obtenerObjeto(string nombre);&lt;/span&gt;&lt;/p&gt;" style="verticalAlign=top;align=left;overflow=fill;html=1;whiteSpace=wrap;" vertex="1" parent="1">
          <mxGeometry x="670" y="-460" width="240" height="200" as="geometry" />
        </mxCell>
        <mxCell id="ZmiweC-K1XhS0n9JyN_v-17" style="edgeStyle=orthogonalEdgeStyle;rounded=0;orthogonalLoop=1;jettySize=auto;html=1;exitX=0.5;exitY=0;exitDx=0;exitDy=0;entryX=0.5;entryY=0;entryDx=0;entryDy=0;" edge="1" parent="1" source="ZmiweC-K1XhS0n9JyN_v-10" target="ZmiweC-K1XhS0n9JyN_v-9">
          <mxGeometry relative="1" as="geometry" />
        </mxCell>
        <mxCell id="ZmiweC-K1XhS0n9JyN_v-10" value="&lt;p style=&quot;margin:0px;margin-top:4px;text-align:center;&quot;&gt;&lt;b&gt;Objetos.h&lt;/b&gt;&lt;/p&gt;&lt;hr size=&quot;1&quot; style=&quot;border-style:solid;&quot;&gt;&lt;p dir=&quot;ltr&quot; class=&quot;selectable-text copyable-text x15bjb6t x1n2onr6&quot;&gt;&lt;span style=&quot;white-space-collapse: preserve;&quot; class=&quot;selectable-text copyable-text false&quot;&gt;string nombre;&lt;/span&gt;&lt;/p&gt;&lt;p dir=&quot;ltr&quot; class=&quot;selectable-text copyable-text x15bjb6t x1n2onr6&quot;&gt;&lt;span style=&quot;white-space-collapse: preserve;&quot; class=&quot;selectable-text copyable-text false&quot;&gt; string tipo;&lt;/span&gt;&lt;/p&gt;&lt;p dir=&quot;ltr&quot; class=&quot;selectable-text copyable-text x15bjb6t x1n2onr6&quot;&gt;&lt;span style=&quot;white-space-collapse: preserve;&quot; class=&quot;selectable-text copyable-text false&quot;&gt; string efecto;&lt;/span&gt;&lt;/p&gt;&lt;hr size=&quot;1&quot; style=&quot;border-style:solid;&quot;&gt;&lt;p dir=&quot;ltr&quot; class=&quot;selectable-text copyable-text x15bjb6t x1n2onr6&quot;&gt;&lt;span style=&quot;white-space-collapse: preserve;&quot; class=&quot;selectable-text copyable-text false&quot;&gt;Objetos(const string&amp;amp; nombre, const string&amp;amp; tipo, const string&amp;amp; efecto);&lt;/span&gt;&lt;/p&gt;&lt;p dir=&quot;ltr&quot; class=&quot;selectable-text copyable-text x15bjb6t x1n2onr6&quot;&gt;&lt;span style=&quot;white-space-collapse: preserve;&quot; class=&quot;selectable-text copyable-text false&quot;&gt;string getNombre () const;&lt;/span&gt;&lt;/p&gt;&lt;p dir=&quot;ltr&quot; class=&quot;selectable-text copyable-text x15bjb6t x1n2onr6&quot;&gt;&lt;span style=&quot;white-space-collapse: preserve;&quot; class=&quot;selectable-text copyable-text false&quot;&gt; string getTipo() const;&lt;/span&gt;&lt;/p&gt;&lt;p dir=&quot;ltr&quot; class=&quot;selectable-text copyable-text x15bjb6t x1n2onr6&quot;&gt;&lt;span style=&quot;white-space-collapse: preserve;&quot; class=&quot;selectable-text copyable-text false&quot;&gt; string getEfecto() const;&lt;/span&gt;&lt;/p&gt;" style="verticalAlign=top;align=left;overflow=fill;html=1;whiteSpace=wrap;" vertex="1" parent="1">
          <mxGeometry x="280" y="-400" width="280" height="250" as="geometry" />
        </mxCell>
        <mxCell id="ZmiweC-K1XhS0n9JyN_v-11" value="&lt;p style=&quot;margin:0px;margin-top:4px;text-align:center;&quot;&gt;&lt;b&gt;Habilidades.h&lt;/b&gt;&lt;/p&gt;&lt;hr size=&quot;1&quot; style=&quot;border-style:solid;&quot;&gt;&lt;p dir=&quot;ltr&quot; class=&quot;selectable-text copyable-text x15bjb6t x1n2onr6&quot;&gt;&lt;span style=&quot;white-space-collapse: preserve;&quot; class=&quot;selectable-text copyable-text false&quot;&gt; string nombre;&lt;/span&gt;&lt;/p&gt;&lt;p dir=&quot;ltr&quot; class=&quot;selectable-text copyable-text x15bjb6t x1n2onr6&quot;&gt;&lt;span style=&quot;white-space-collapse: preserve;&quot; class=&quot;selectable-text copyable-text false&quot;&gt; string descripcion;&lt;/span&gt;&lt;/p&gt;&lt;hr size=&quot;1&quot; style=&quot;border-style:solid;&quot;&gt;&lt;p dir=&quot;ltr&quot; class=&quot;selectable-text copyable-text x15bjb6t x1n2onr6&quot;&gt;&lt;span style=&quot;white-space-collapse: preserve;&quot; class=&quot;selectable-text copyable-text false&quot;&gt;Habilidades(string nombre, string descripcion);&lt;/span&gt;&lt;/p&gt;&lt;p dir=&quot;ltr&quot; class=&quot;selectable-text copyable-text x15bjb6t x1n2onr6&quot;&gt;&lt;span style=&quot;white-space-collapse: preserve;&quot; class=&quot;selectable-text copyable-text false&quot;&gt; string getNombre() const;&lt;/span&gt;&lt;/p&gt;&lt;p dir=&quot;ltr&quot; class=&quot;selectable-text copyable-text x15bjb6t x1n2onr6&quot;&gt;&lt;span style=&quot;white-space-collapse: preserve;&quot; class=&quot;selectable-text copyable-text false&quot;&gt; string getDescripcion() const;&lt;/span&gt;&lt;/p&gt;" style="verticalAlign=top;align=left;overflow=fill;html=1;whiteSpace=wrap;" vertex="1" parent="1">
          <mxGeometry x="630" y="-180" width="250" height="210" as="geometry" />
        </mxCell>
        <mxCell id="ZmiweC-K1XhS0n9JyN_v-14" style="edgeStyle=orthogonalEdgeStyle;rounded=0;orthogonalLoop=1;jettySize=auto;html=1;exitX=0;exitY=0.75;exitDx=0;exitDy=0;entryX=0.415;entryY=0;entryDx=0;entryDy=0;entryPerimeter=0;" edge="1" parent="1" source="ZmiweC-K1XhS0n9JyN_v-10" target="ZmiweC-K1XhS0n9JyN_v-5">
          <mxGeometry relative="1" as="geometry" />
        </mxCell>
        <mxCell id="ZmiweC-K1XhS0n9JyN_v-15" style="edgeStyle=orthogonalEdgeStyle;rounded=0;orthogonalLoop=1;jettySize=auto;html=1;exitX=0;exitY=0.25;exitDx=0;exitDy=0;entryX=0.474;entryY=-0.002;entryDx=0;entryDy=0;entryPerimeter=0;" edge="1" parent="1" source="ZmiweC-K1XhS0n9JyN_v-11" target="ZmiweC-K1XhS0n9JyN_v-5">
          <mxGeometry relative="1" as="geometry">
            <Array as="points">
              <mxPoint x="630" y="-130" />
              <mxPoint x="34" y="-130" />
            </Array>
          </mxGeometry>
        </mxCell>
        <mxCell id="ZmiweC-K1XhS0n9JyN_v-16" style="edgeStyle=orthogonalEdgeStyle;rounded=0;orthogonalLoop=1;jettySize=auto;html=1;exitX=1;exitY=0;exitDx=0;exitDy=0;entryX=0.59;entryY=-0.004;entryDx=0;entryDy=0;entryPerimeter=0;" edge="1" parent="1" source="ZmiweC-K1XhS0n9JyN_v-5" target="ZmiweC-K1XhS0n9JyN_v-1">
          <mxGeometry relative="1" as="geometry">
            <Array as="points">
              <mxPoint x="250" y="-100" />
              <mxPoint x="472" y="-100" />
            </Array>
          </mxGeometry>
        </mxCell>
      </root>
    </mxGraphModel>
  </diagram>
</mxfile>
